<?xml version="1.0" encoding="utf-8"?>
<!-- Generator: Adobe Illustrator 26.2.1, SVG Export Plug-In . SVG Version: 6.00 Build 0)  -->
<svg version="1.1"
	 id="Capa_1" xmlns:cc="http://creativecommons.org/ns#" xmlns:dc="http://purl.org/dc/elements/1.1/" xmlns:inkscape="http://www.inkscape.org/namespaces/inkscape" xmlns:rdf="http://www.w3.org/1999/02/22-rdf-syntax-ns#" xmlns:sodipodi="http://sodipodi.sourceforge.net/DTD/sodipodi-0.dtd" xmlns:svg="http://www.w3.org/2000/svg"
	 xmlns="http://www.w3.org/2000/svg" xmlns:xlink="http://www.w3.org/1999/xlink" x="0px" y="0px" viewBox="0 0 500 500"
	 style="enable-background:new 0 0 500 500;" xml:space="preserve">
<style type="text/css">
	.st0{fill:url(#circle17_00000121971284548392662190000012531628403166968459_);}
	.st1{display:none;fill:url(#path26_00000073723738705595383590000011382192495208414595_);}
	.st2{opacity:0.2;fill:url(#path37_00000116207899691223173330000010314534281094758057_);enable-background:new    ;}
	.st3{opacity:0.2;fill:url(#path48_00000078759436757979692400000014290849795492053412_);enable-background:new    ;}
	.st4{opacity:0.2;fill:url(#path59_00000024686178775586458280000002097145823792108710_);enable-background:new    ;}
	.st5{opacity:0.2;fill:url(#path70_00000083088371631297160540000015808368637152639104_);enable-background:new    ;}
	.st6{opacity:0.53;fill:url(#path81_00000069369208419762747190000014046921497471020718_);enable-background:new    ;}
	.st7{opacity:0.5;fill:url(#ellipse90_00000107571757853815210030000003911014000010284674_);enable-background:new    ;}
	.st8{opacity:0.5;fill:url(#ellipse105_00000103247095077545223110000009611232373243575702_);enable-background:new    ;}
	.st9{fill:url(#path114_00000052821286343398332890000016376328769759264651_);}
</style>
<sodipodi:namedview  bordercolor="#666666" borderopacity="1" gridtolerance="10" guidetolerance="10" id="namedview121" inkscape:current-layer="g118" inkscape:cx="493.36373" inkscape:cy="139.8148" inkscape:pageopacity="0" inkscape:pageshadow="2" inkscape:window-height="837" inkscape:window-maximized="1" inkscape:window-width="1600" inkscape:window-x="-8" inkscape:window-y="-8" inkscape:zoom="0.3337544" objecttolerance="10" pagecolor="#ffffff" showgrid="false">
	</sodipodi:namedview>
<g id="g118">
	
		<radialGradient id="circle17_00000100352294800402997810000013193294138844801423_" cx="-125.9356" cy="-923.0303" r="18.7529" gradientTransform="matrix(11.7568 0 0 12.0067 1730.605 11326.5205)" gradientUnits="userSpaceOnUse">
		<stop  offset="0" style="stop-color:#FF0A1A"/>
		<stop  offset="0.2371" style="stop-color:#FC0A19"/>
		<stop  offset="0.4364" style="stop-color:#F10916"/>
		<stop  offset="0.6214" style="stop-color:#E00711"/>
		<stop  offset="0.678" style="stop-color:#D9060F"/>
		<stop  offset="0.9512" style="stop-color:#A10000"/>
		<stop  offset="1" style="stop-color:#800000"/>
	</radialGradient>
	
		<ellipse id="circle17" style="fill:url(#circle17_00000100352294800402997810000013193294138844801423_);" cx="250" cy="244" rx="220.5" ry="225.1"/>
	
		<radialGradient id="path26_00000159448519596279734890000009984274138588776320_" cx="-246.9103" cy="720.0165" r="11.9242" fx="-246.8024" fy="710.7311" gradientTransform="matrix(11.7568 0 0 8.921 3152.0161 -6277.5059)" gradientUnits="userSpaceOnUse">
		<stop  offset="0" style="stop-color:#F2F2F2"/>
		<stop  offset="0.9756" style="stop-color:#F2F2F2;stop-opacity:0.1"/>
		<stop  offset="1" style="stop-color:#F2F2F2;stop-opacity:0"/>
	</radialGradient>
	<path id="path26" style="display:none;fill:url(#path26_00000159448519596279734890000009984274138588776320_);" d="M250,295.6
		c-36.4,0-71.9-17.2-100.3-48.1c-26-28.1-41.1-63.7-41.1-94.6c0-30.5,15.6-60.2,42.3-82.5c26.8-21.9,62.3-34.4,99.5-34.4
		s72.7,12.1,99.5,34.4c26.8,21.9,42.3,52,42.3,82.5c0,30.9-15.6,66.4-41.1,94.6C321.9,278.4,286.4,295.6,250,295.6z"/>
	
		<linearGradient id="path37_00000004539900739572548770000006643089612811334796_" gradientUnits="userSpaceOnUse" x1="250" y1="628.8875" x2="250" y2="863.0158" gradientTransform="matrix(1 0 0 1 0 -578)">
		<stop  offset="0" style="stop-color:#F2F2F2"/>
		<stop  offset="0.4732" style="stop-color:#F2F2F2;stop-opacity:0.2822"/>
		<stop  offset="0.6488" style="stop-color:#F2F2F2;stop-opacity:0"/>
		<stop  offset="0.7854" style="stop-color:#F2F2F2;stop-opacity:8.600000e-02"/>
	</linearGradient>
	
		<path id="path37" style="opacity:0.2;fill:url(#path37_00000004539900739572548770000006643089612811334796_);enable-background:new    ;" d="
		M250,45.5c67.9,0,130.2,50,130.2,107.5S317.9,286.6,250,286.6s-130.2-76.2-130.2-133.7C119.8,95.5,182.1,45.5,250,45.5z"/>
	
		<linearGradient id="path48_00000032635211798121781490000016598077290869193631_" gradientUnits="userSpaceOnUse" x1="250" y1="630.1774" x2="250" y2="861.6833" gradientTransform="matrix(1 0 0 1 0 -578)">
		<stop  offset="0" style="stop-color:#F2F2F2"/>
		<stop  offset="0.4732" style="stop-color:#F2F2F2;stop-opacity:0.2822"/>
		<stop  offset="0.6488" style="stop-color:#F2F2F2;stop-opacity:0"/>
		<stop  offset="0.7854" style="stop-color:#F2F2F2;stop-opacity:8.600000e-02"/>
	</linearGradient>
	
		<path id="path48" style="opacity:0.2;fill:url(#path48_00000032635211798121781490000016598077290869193631_);enable-background:new    ;" d="
		M250,47c67.1,0,128.6,49.6,128.6,106.3S317.1,285.4,250,285.4c-67.1,0-128.6-75.4-128.6-132.1C121.4,96.3,182.9,47,250,47z"/>
	
		<linearGradient id="path59_00000148642864567709920990000013451044705163099569_" gradientUnits="userSpaceOnUse" x1="249.9999" y1="631.6906" x2="249.9999" y2="860.1216" gradientTransform="matrix(1 0 0 1 0 -578)">
		<stop  offset="0" style="stop-color:#F2F2F2"/>
		<stop  offset="0.4732" style="stop-color:#F2F2F2;stop-opacity:0.2822"/>
		<stop  offset="0.6488" style="stop-color:#F2F2F2;stop-opacity:0"/>
		<stop  offset="0.7854" style="stop-color:#F2F2F2;stop-opacity:8.600000e-02"/>
	</linearGradient>
	
		<path id="path59" style="opacity:0.2;fill:url(#path59_00000148642864567709920990000013451044705163099569_);enable-background:new    ;" d="
		M250,48.6c66.3,0,127,48.9,127,104.7s-60.7,130.5-127,130.5s-127-74.3-127-130.5C123,97.4,183.7,48.6,250,48.6z"/>
	
		<linearGradient id="path70_00000073002079990784715920000007255879862434997903_" gradientUnits="userSpaceOnUse" x1="250" y1="633.4108" x2="250" y2="858.3456" gradientTransform="matrix(1 0 0 1 0 -578)">
		<stop  offset="0" style="stop-color:#F2F2F2"/>
		<stop  offset="0.4732" style="stop-color:#F2F2F2;stop-opacity:0.2822"/>
		<stop  offset="0.6488" style="stop-color:#F2F2F2;stop-opacity:0"/>
		<stop  offset="0.7854" style="stop-color:#F2F2F2;stop-opacity:8.600000e-02"/>
	</linearGradient>
	
		<path id="path70" style="opacity:0.2;fill:url(#path70_00000073002079990784715920000007255879862434997903_);enable-background:new    ;" d="
		M250,50.2c65.5,0,125.8,48.1,125.8,103.2c0,55.1-60.3,128.6-125.8,128.6s-125.8-73.1-125.8-128.6C124.2,98.2,184.5,50.2,250,50.2z"
		/>
	
		<linearGradient id="path81_00000145058805814334602640000014415277017713463215_" gradientUnits="userSpaceOnUse" x1="250" y1="634.9084" x2="250" y2="856.799" gradientTransform="matrix(1 0 0 1 0 -578)">
		<stop  offset="0" style="stop-color:#F2F2F2"/>
		<stop  offset="0.4732" style="stop-color:#F2F2F2;stop-opacity:0.2822"/>
		<stop  offset="0.6488" style="stop-color:#F2F2F2;stop-opacity:0"/>
		<stop  offset="0.7854" style="stop-color:#F2F2F2;stop-opacity:8.600000e-02"/>
	</linearGradient>
	
		<path id="path81" style="opacity:0.53;fill:url(#path81_00000145058805814334602640000014415277017713463215_);enable-background:new    ;" d="
		M250,51.7c64.3,0,123.8,47.7,123.8,102c0,54.3-59.1,126.6-123.8,126.6c-64.3,0-123.8-72.3-123.8-126.6
		C126.6,99.4,185.7,51.7,250,51.7z"/>
	
		<radialGradient id="ellipse90_00000052077004607815856770000003718122361126187176_" cx="-246.9735" cy="692.2952" r="4.4564" gradientTransform="matrix(11.7568 0 0 7.6949 3152.0161 -4937.5859)" gradientUnits="userSpaceOnUse">
		<stop  offset="0" style="stop-color:#F2F2F2;stop-opacity:0.83"/>
		<stop  offset="0.322" style="stop-color:#F2F2F2;stop-opacity:0.38"/>
		<stop  offset="1" style="stop-color:#F2F2F2;stop-opacity:0"/>
	</radialGradient>
	
		<ellipse id="ellipse90" style="opacity:0.5;fill:url(#ellipse90_00000052077004607815856770000003718122361126187176_);enable-background:new    ;" cx="250" cy="297.9" rx="159.8" ry="152.4"/>
	
		<radialGradient id="ellipse105_00000156560355062300591780000004155832388921649308_" cx="-246.8364" cy="674.4813" r="10.4524" gradientTransform="matrix(11.7568 0 0 8.5114 3152.0161 -5378.2012)" gradientUnits="userSpaceOnUse">
		<stop  offset="0" style="stop-color:#F2F2F2"/>
		<stop  offset="0.2439" style="stop-color:#F2F2F2;stop-opacity:0.9171"/>
		<stop  offset="0.4049" style="stop-color:#F2F2F2;stop-opacity:0.781"/>
		<stop  offset="0.639" style="stop-color:#F2F2F2;stop-opacity:0.4993"/>
		<stop  offset="0.8537" style="stop-color:#F2F2F2;stop-opacity:0.2497"/>
		<stop  offset="1" style="stop-color:#F2F2F2;stop-opacity:0"/>
	</radialGradient>
	
		<ellipse id="ellipse105" style="opacity:0.5;fill:url(#ellipse105_00000156560355062300591780000004155832388921649308_);enable-background:new    ;" cx="250" cy="297.9" rx="159.8" ry="152.4"/>
	<g id="g116">
		
			<radialGradient id="path114_00000021831218575162297690000004918410983466032023_" cx="220.4041" cy="187.6546" r="48.796" gradientTransform="matrix(3.9947 0 0 3.9084 -630.8676 -437.7114)" gradientUnits="userSpaceOnUse">
			<stop  offset="0" style="stop-color:#FFFFFF"/>
			<stop  offset="0.2611" style="stop-color:#F5F5F5"/>
			<stop  offset="0.761" style="stop-color:#E5E5E5"/>
		</radialGradient>
		<path id="path114" style="fill:url(#path114_00000021831218575162297690000004918410983466032023_);" d="M336.7,151.4
			c5.2,0,10.4,0,15.6,0c0,16.4,0,32.8,0,48.9c-5.2,0-10.4,0-15.6,0C336.7,184.2,336.7,167.8,336.7,151.4 M371.4,206.9
			c14.4-15.2,28.4-30.5,42.7-45.7c3.6,3.9,7.6,7.8,11.2,11.7c-14.4,15.2-28.4,30.5-42.7,45.7C379,214.7,375.4,210.8,371.4,206.9
			 M96.6,197.9c4-0.8,8-1.6,12-1.2c13.6-0.4,26.4,7,34.8,18c4,5.1,6.8,11.3,8.4,18c-6,0-12.4,0-18.4,0c-2.8-5.9-6.8-10.9-12.4-14.1
			c-2.8-1.6-6.4-2.7-9.6-3.5c-3.2,0-6.4-0.4-9.6,0.4c-5.2,1.2-10,4.3-13.6,8.2c-4.8,4.7-8,11.7-8.4,18.8c-0.8,6.6,0.4,13.7,4,19.5
			c3.6,5.5,8.4,9.8,14,12.1c9.6,3.9,21.6,1.6,28.8-6.3c2.4-2.7,4.8-5.9,6.4-9.4c6,0,12.4,0,18.4,0c-1.6,7-4.8,13.3-9.2,18.8
			c-2.8,3.1-5.6,6.6-9.2,9c-16,11.7-38.7,10.9-53.9-2.3c-4.8-4.3-8.8-9-12-14.9c-5.2-10.2-6.8-22.3-4.8-33.6
			c1.6-9.8,6.4-18.4,12.8-25.4C81.8,204.5,89,199.8,96.6,197.9 M161.3,196.3c6,0,11.6,0,17.6,0c0,32.8,0,65.7,0,98.9
			c-6,0-11.6,0-17.6,0C161.3,262.4,161.3,229.6,161.3,196.3 M214.4,216.3c3.2-0.8,6.8-0.4,10-0.4c4,0.4,8,0.8,11.6,2.3
			c3.6,1.6,7.6,3.1,10,6.3c3.2,3.9,4,9,4.4,14.1c0,18.8,0,37.9,0,56.7c-6,0-12,0-18,0c0-2.7,0-5.1,0-7.8c-5.2,4.7-12,7-18.8,7.4
			c-4.4,0.8-8.8,0-12.8-1.2c-5.2-2-9.6-6.6-11.2-12.1c-1.6-5.9-1.2-12.5,0.8-18.4c2-5.9,7.2-10.2,12.8-12.1
			c7.2-2.7,14.8-3.1,22.4-4.7c2.4,0,5.2-1.6,6-4.3c0.8-2.7,0-6.3-2.4-8.2c-2.4-2-5.6-2.3-8.8-2.3c-2.8,0-5.6,0-7.6,1.6
			c-3.2,2-4.4,5.5-5.2,9c-6,0-11.6,0-17.6,0c0.8-6.3,2-12.9,6-17.6C201.3,219.4,208.1,216.7,214.4,216.3 M227.6,258.9
			c-3.6,0.8-6.8,2-10.4,2.3c-2.8,0.8-5.6,1.6-7.6,3.9c-2.8,3.5-2.8,9-0.8,12.9c0.8,2,2.8,2.7,4.4,3.1c5.6,1.2,11.6-0.8,15.6-5.1
			c4-5.5,3.6-13.3,3.6-19.9C230.8,257.3,229.2,258.5,227.6,258.9 M292.7,218.2c3.6-0.8,7.2-2.3,11.2-2.3c0,6.3,0.4,12.9,0.4,19.2
			c-3.2-0.4-6.8-0.8-10,0c-6.8,2-12.8,8.6-13.6,16c0,1.6-0.4,3.5-0.4,5.1c0,12.9,0,25.8,0,38.7c-6,0-11.6,0-17.6,0
			c0-25.4,0-50.4,0-75.8c5.6,0,11.2,0,17.2,0.4c0,3.1,0,6.3,0,9.4C283.2,224.5,287.6,220.2,292.7,218.2 M336.7,216.3
			c2.8-0.4,5.2-0.4,8-0.4c15.6,0.4,30.4,13.3,34,29.3c3.2,13.3,0,28.5-9.2,37.9c-5.6,6.3-12.8,10.6-20.8,11.7c-4,0-7.6,0-11.6,0
			c-11.2-1.6-21.2-10.2-26.8-20.3c-6-11.3-6-26.2,0-37.5C315.1,226.4,325.1,218.2,336.7,216.3 M337.9,235
			c-5.2,1.2-9.6,5.1-12.4,10.2c-4,7-3.2,16.8,1.6,23.5c5.2,7.8,15.6,10.6,23.6,6.3c4.8-2.3,8-6.6,10-11.3c2-5.5,1.6-12.5-0.8-17.6
			c-2.8-5.5-8-9.8-13.6-10.9C343.5,234.6,340.7,234.6,337.9,235 M390.6,238.1c15.6,0,31.2,0,47.1,0c0,5.5,0,10.9,0,16.8
			c-15.6,0-31.2,0-47.1,0C390.6,249.1,390.6,243.6,390.6,238.1L390.6,238.1z"/>
	</g>
</g>
</svg>
